# xmcd CD database file
#
# Track frame offsets:
#	150
#	16412
#	30159
#	62926
#	78950
#	98954
#	119869
#	136652
#	157628
#	177685
#
# Disc length: 2574 seconds
#
# Revision: 0
# Processed by: cddbd v1.4PL0 Copyright (c) Steve Scherf et al.
# Submitted via: CDex 1.50
#
DISCID=790a0c0a
DTITLE=Carvin Jones - I Walked All Night
DYEAR=2000
DGENRE=Blues
TTITLE0=I Walked All Night Long
TTITLE1=Speed of Light
TTITLE2=Sweet Little Angel
TTITLE3=Crosscut Saw
TTITLE4=Catfish Blues
TTITLE5=Hawaii Hawaii
TTITLE6=Down Don't Bother Me
TTITLE7=Dust My Broom
TTITLE8=Blue Bossa
TTITLE9=Hey Pretty Woman
EXTD=YEAR: 2000
EXTT0=
EXTT1=
EXTT2=
EXTT3=
EXTT4=
EXTT5=
EXTT6=
EXTT7=
EXTT8=
EXTT9=
PLAYORDER=
